<svg xmlns="http://www.w3.org/2000/svg" width="720" height="355" fill="none" viewBox="0 0 720 355"><g filter="url(#filter0_d_1261_3169)" opacity=".2"><path fill="#132141" d="M150.798 122.348H350.856V166.142H150.798V122.348ZM228.68 0.164673H273.712V344.264H228.68V0.164673ZM18.6563 111.675H137.879V144.797H18.6563V111.675ZM20.871 10.1012H138.617V43.5911H20.871V10.1012ZM18.6563 161.726H137.879V195.216H18.6563V161.726ZM0.569885 59.784H152.643V94.746H0.569885V59.784ZM38.9574 212.881H136.772V324.759H38.9574V289.797H98.015V247.843H38.9574V212.881ZM17.549 212.881H55.9364V339.48H17.549V212.881ZM413.235 280.964H672.351V322.551H413.235V280.964ZM377.432 20.7738H710V61.9921H377.432V20.7738ZM388.874 86.2815H431.691V344.264H388.874V86.2815ZM655.372 86.2815H698.558V343.896H655.372V86.2815ZM519.539 32.5505H564.571V107.995H519.539V32.5505ZM523.23 108.363H561.249V245.634H523.23V108.363ZM491.487 192.271V223.553H593.361V192.271H491.487ZM491.487 127.5V158.414H593.361V127.5H491.487ZM454.945 91.4338H631.379V259.619H454.945V91.4338Z"/></g><defs><filter id="filter0_d_1261_3169" width="719.43" height="354.099" x=".57" y=".165" color-interpolation-filters="sRGB" filterUnits="userSpaceOnUse"><feFlood flood-opacity="0" result="BackgroundImageFix"/><feColorMatrix in="SourceAlpha" result="hardAlpha" type="matrix" values="0 0 0 0 0 0 0 0 0 0 0 0 0 0 0 0 0 0 127 0"/><feOffset dx="10" dy="10"/><feComposite in2="hardAlpha" operator="out"/><feColorMatrix type="matrix" values="0 0 0 0 1 0 0 0 0 1 0 0 0 0 1 0 0 0 1 0"/><feBlend in2="BackgroundImageFix" mode="normal" result="effect1_dropShadow_1261_3169"/><feBlend in="SourceGraphic" in2="effect1_dropShadow_1261_3169" mode="normal" result="shape"/></filter></defs></svg>